<?xml version="1.0" standalone="no"?>
<!DOCTYPE svg PUBLIC "-//W3C//DTD SVG 20010904//EN"
 "http://www.w3.org/TR/2001/REC-SVG-20010904/DTD/svg10.dtd">
<svg version="1.0" xmlns="http://www.w3.org/2000/svg"
 width="500.000000pt" height="500.000000pt" viewBox="0 0 500.000000 500.000000"
 preserveAspectRatio="xMidYMid meet">
<metadata>
Created by potrace 1.14, written by Peter Selinger 2001-2017
</metadata>
<g transform="translate(0.000000,500.000000) scale(0.100000,-0.100000)"
fill="#000000" stroke="none">
<path d="M3094 4923 c-11 -10 -64 -67 -119 -127 -55 -61 -107 -117 -115 -126
-8 -9 -60 -66 -116 -126 -106 -114 -178 -193 -230 -251 l-31 -34 -134 -4 c-74
-2 -147 -6 -164 -10 -103 -22 -125 -27 -170 -42 -167 -53 -316 -145 -451 -278
-50 -49 -110 -119 -134 -154 -81 -122 -149 -278 -171 -395 -5 -28 -12 -62 -15
-76 -15 -69 -11 -263 7 -348 29 -131 96 -283 157 -355 14 -16 10 -32 -8 -32
-5 0 -22 -10 -38 -22 -45 -33 -74 -118 -77 -225 -2 -92 -1 -90 -70 -175 -46
-56 -28 -58 -146 15 -30 18 -63 38 -74 45 -11 7 -81 53 -157 103 -143 97 -211
151 -202 165 2 4 7 96 11 203 l6 194 -34 -2 c-19 -2 -36 -4 -39 -5 -3 0 -5
-31 -6 -69 -1 -77 -8 -261 -10 -259 -46 63 -198 263 -207 272 -7 7 -30 36 -51
63 -41 53 -56 57 -56 17 0 -13 -4 -35 -10 -49 -6 -18 -6 -29 3 -38 7 -7 25
-31 42 -53 16 -22 35 -46 42 -53 7 -8 26 -30 41 -50 15 -21 29 -39 32 -42 12
-11 87 -106 95 -119 7 -12 -3 -13 -56 -7 -35 3 -75 8 -89 10 -14 2 -47 7 -73
11 l-48 6 7 -28 c10 -41 12 -43 47 -43 18 0 79 -9 137 -21 58 -11 110 -21 117
-22 6 0 59 -34 116 -76 58 -42 115 -83 127 -91 47 -33 156 -110 165 -118 6 -4
42 -29 80 -56 39 -27 72 -51 74 -52 2 -2 -18 -48 -45 -101 -27 -54 -50 -103
-51 -108 -2 -6 -16 -49 -32 -97 -42 -121 -63 -252 -64 -398 -1 -146 3 -183 34
-315 45 -189 195 -428 352 -560 32 -27 65 -55 72 -62 31 -29 188 -124 265
-161 103 -49 257 -101 345 -118 11 -2 43 -8 70 -13 582 -114 1121 51 1451 444
174 207 268 476 268 765 0 120 -14 237 -43 360 -17 73 -51 170 -86 247 -18 40
-30 73 -27 75 4 2 34 35 67 73 113 133 130 151 269 288 109 107 149 140 179
148 39 10 114 6 192 -11 55 -12 92 -19 146 -26 50 -7 49 -7 64 69 6 28 -16 33
-220 53 -27 3 -65 7 -83 10 l-32 5 27 37 c16 20 33 42 38 48 6 6 29 33 51 60
45 52 69 79 145 161 l49 52 -17 38 c-10 21 -19 40 -20 42 -2 2 -45 -40 -97
-95 -52 -54 -165 -169 -251 -254 -87 -85 -254 -251 -372 -369 -118 -117 -215
-212 -217 -210 -32 48 -36 65 -39 166 -3 93 -7 116 -31 169 -33 74 -85 126
-148 151 l-46 18 42 70 c43 70 88 178 102 245 4 19 9 42 11 50 29 127 21 338
-19 495 l-24 90 63 103 c35 56 63 104 63 107 0 3 10 22 23 43 13 20 40 68 61
105 20 37 45 82 55 100 10 18 58 104 108 192 50 88 93 170 97 182 6 19 -11 35
-131 128 -76 59 -151 118 -168 131 -214 167 -420 324 -425 324 -4 0 -16 -8
-26 -17z"/>
</g>
</svg>
